<?xml version="1.0" encoding="UTF-8"?>
<svg xmlns="http://www.w3.org/2000/svg" xmlns:xlink="http://www.w3.org/1999/xlink" width="24pt" height="24pt" viewBox="0 0 24 24" version="1.1">
<g id="surface1">
<path style=" stroke:none;fill-rule:nonzero;fill:rgb(0%,0%,0%);fill-opacity:1;" d="M 0 12 L 0 24 L 24 24 L 24 0 L 0 0 Z M 22.175781 4.871094 C 22.511719 5.101562 22.523438 5.554688 22.199219 5.878906 C 21.910156 6.167969 21.742188 6.179688 21.382812 5.929688 C 21.070312 5.710938 21.035156 5.207031 21.324219 4.894531 C 21.5625 4.632812 21.828125 4.621094 22.175781 4.871094 Z M 7.441406 6.203125 C 7.441406 6.324219 6.851562 8.820312 6.144531 11.761719 L 4.847656 17.101562 L 7.558594 17.171875 L 7.558594 18 L 3.625 18 L 3.898438 16.824219 C 4.054688 16.1875 4.644531 13.753906 5.207031 11.425781 C 5.773438 9.085938 6.238281 7.128906 6.238281 7.066406 C 6.238281 7.007812 5.652344 6.960938 4.921875 6.960938 L 3.601562 6.960938 L 3.601562 6 L 5.519531 6 C 7.273438 6 7.441406 6.023438 7.441406 6.203125 Z M 9.480469 12 L 9.480469 18 L 8.640625 18 L 8.640625 6 L 9.480469 6 Z M 13.210938 6.433594 C 14.148438 6.851562 15.121094 7.882812 15.492188 8.84375 C 16.402344 11.230469 15.457031 14.050781 13.390625 15.144531 L 12.910156 15.382812 L 13.453125 15.886719 C 13.738281 16.152344 14.375 16.738281 14.855469 17.183594 L 15.71875 18 L 14.4375 18 L 13.128906 16.777344 L 11.820312 15.550781 L 11.785156 16.777344 L 11.746094 18 L 10.921875 18 L 10.921875 5.964844 L 11.710938 6.035156 C 12.15625 6.085938 12.792969 6.253906 13.210938 6.433594 Z M 19.367188 6.167969 C 19.585938 6.253906 19.894531 6.515625 20.050781 6.730469 L 20.339844 7.140625 L 20.375 12.5625 L 20.410156 18 L 19.558594 18 L 19.558594 10.558594 L 17.761719 10.558594 L 17.761719 18 L 17.039062 18 L 17.039062 14.28125 C 17.039062 11.003906 17.015625 10.558594 16.847656 10.558594 C 16.753906 10.558594 16.585938 10.367188 16.488281 10.140625 C 16.261719 9.601562 16.261719 9.601562 16.679688 9.601562 L 17.039062 9.601562 L 17.039062 8.410156 C 17.039062 7.390625 17.074219 7.1875 17.316406 6.828125 C 17.605469 6.382812 18.253906 6 18.695312 6 C 18.839844 6 19.152344 6.070312 19.367188 6.167969 Z M 19.367188 6.167969 "/>
<path style=" stroke:none;fill-rule:nonzero;fill:rgb(0%,0%,0%);fill-opacity:1;" d="M 21.445312 5.015625 C 21.085938 5.410156 21.265625 5.878906 21.78125 5.878906 C 22.332031 5.878906 22.5 5.304688 22.054688 4.992188 C 21.71875 4.753906 21.683594 4.753906 21.445312 5.015625 Z M 22.042969 5.398438 C 22.019531 5.773438 21.898438 5.867188 21.804688 5.605469 C 21.757812 5.496094 21.707031 5.507812 21.613281 5.640625 C 21.515625 5.785156 21.480469 5.734375 21.480469 5.425781 C 21.480469 5.101562 21.515625 5.039062 21.78125 5.039062 C 22.03125 5.039062 22.066406 5.089844 22.042969 5.398438 Z M 22.042969 5.398438 "/>
<path style=" stroke:none;fill-rule:nonzero;fill:rgb(0%,0%,0%);fill-opacity:1;" d="M 21.695312 5.242188 C 21.78125 5.28125 21.886719 5.269531 21.925781 5.230469 C 21.972656 5.195312 21.898438 5.160156 21.769531 5.171875 C 21.636719 5.171875 21.601562 5.207031 21.695312 5.242188 Z M 21.695312 5.242188 "/>
<path style=" stroke:none;fill-rule:nonzero;fill:rgb(0%,0%,0%);fill-opacity:1;" d="M 11.761719 10.789062 L 11.761719 14.640625 L 12.085938 14.640625 C 12.898438 14.640625 14.050781 13.753906 14.617188 12.683594 C 14.902344 12.121094 14.941406 11.941406 14.941406 10.859375 C 14.929688 9.886719 14.878906 9.550781 14.675781 9.097656 C 14.171875 8.003906 13.222656 7.210938 12.203125 7.019531 L 11.761719 6.9375 Z M 11.761719 10.789062 "/>
<path style=" stroke:none;fill-rule:nonzero;fill:rgb(0%,0%,0%);fill-opacity:1;" d="M 18.203125 7.105469 C 17.902344 7.34375 17.761719 7.859375 17.761719 8.773438 L 17.761719 9.601562 L 19.558594 9.601562 L 19.558594 8.628906 C 19.558594 7.703125 19.441406 7.246094 19.152344 7.054688 C 18.949219 6.910156 18.421875 6.949219 18.203125 7.105469 Z M 18.203125 7.105469 "/>
</g>
</svg>
